<?xml version="1.0" standalone="no"?>
<!DOCTYPE svg PUBLIC "-//W3C//DTD SVG 20010904//EN"
 "http://www.w3.org/TR/2001/REC-SVG-20010904/DTD/svg10.dtd">
<svg version="1.0" xmlns="http://www.w3.org/2000/svg"
 width="640.000000pt" height="508.000000pt" viewBox="0 0 640.000000 508.000000"
 preserveAspectRatio="xMidYMid meet">

<g transform="translate(0.000000,508.000000) scale(0.100000,-0.100000)"
fill="#000000" stroke="none">
<path d="M10 2540 l0 -2530 3190 0 3190 0 0 2530 0 2530 -3190 0 -3190 0 0
-2530z m6238 -2 l2 -2388 -3050 0 -3050 0 0 2383 c0 1311 3 2387 7 2390 3 4
1375 6 3047 5 l3041 -3 3 -2387z"/>
<path d="M1122 3863 c3 -10 119 -308 258 -663 139 -355 377 -962 529 -1350
l276 -705 314 0 315 0 35 90 c20 50 106 267 191 484 113 287 157 389 164 378
5 -8 93 -226 195 -483 l187 -469 314 0 315 0 362 925 c199 509 438 1121 532
1360 94 239 171 439 171 443 0 4 -183 6 -407 5 l-408 -3 -151 -480 c-83 -264
-213 -678 -289 -920 -76 -242 -141 -444 -145 -448 -8 -9 -23 32 -129 341 l-70
203 190 552 c105 304 206 596 225 650 19 55 34 101 34 103 0 2 -155 4 -345 4
l-344 0 -9 -32 c-88 -311 -226 -785 -231 -790 -3 -4 -53 158 -111 360 -57 202
-110 388 -118 415 l-14 47 -345 0 c-272 0 -344 -3 -341 -12 3 -7 103 -302 222
-655 l218 -642 -92 -276 c-51 -152 -96 -273 -100 -268 -4 4 -123 375 -265 823
-141 448 -272 863 -291 923 l-35 107 -406 0 c-381 0 -405 -1 -401 -17z"/>
</g>
</svg>
